<svg xmlns="http://www.w3.org/2000/svg" fill="none" viewBox="0 0 1000 1000">
  <path
    fill="#000"
    d="M467.253.269139c-2.15.195474-8.993.879641-15.151 1.368331C310.068 14.4411 177.028 91.0671 92.7664 208.841 45.8456 274.325 15.8358 348.605 4.49658 427.284.488759 454.748 0 462.86 0 500.098c0 37.238.488759 45.35 4.49658 72.814C31.6716 760.666 165.298 918.414 346.53 976.861c32.453 10.458 66.666 17.592 105.572 21.893 15.151 1.666 80.645 1.666 95.796 0 67.156-7.428 124.047-24.044 180.157-52.681 8.602-4.398 10.264-5.571 9.091-6.548-.782-.586-37.439-49.748-81.428-109.173l-79.96-107.999-100.196-148.268c-55.132-81.513-100.489-148.17-100.88-148.17-.391-.097-.782 65.778-.977 146.215-.293 140.84-.391 146.509-2.151 149.832-2.541 4.789-4.496 6.744-8.602 8.894-3.128 1.564-5.865 1.857-20.625 1.857h-16.912l-4.496-2.835c-2.933-1.857-5.083-4.3-6.549-7.134l-2.053-4.399.195-195.963.293-196.061 3.031-3.812c1.564-2.052 4.887-4.691 7.233-5.962 4.008-1.955 5.572-2.15 22.483-2.15 19.942 0 23.265.782 28.446 6.451 1.466 1.563 55.719 83.272 120.626 181.693 64.907 98.422 153.665 232.811 197.263 298.783l79.178 119.924 4.008-2.639c35.484-23.066 73.021-55.906 102.737-90.114 63.246-72.618 104.008-161.169 117.693-255.583 4.008-27.464 4.497-35.576 4.497-72.814 0-37.238-.489-45.35-4.497-72.814C968.328 239.53 834.702 81.7821 653.47 23.3352 621.505 12.975 587.488 5.84016 549.365 1.53972 539.98.562345 475.367-.51276 467.253.269139ZM671.945 302.668c4.692 2.346 8.505 6.842 9.873 11.533.782 2.542.978 56.884.782 179.348l-.293 175.732-30.987-47.5-31.085-47.5V446.538c0-82.588.391-129.013.977-131.261 1.564-5.474 4.985-9.774 9.678-12.315 4.007-2.053 5.474-2.248 20.821-2.248 14.467 0 17.008.195 20.234 1.954Z"
  />
</svg>
